<svg id="Layer_1" data-name="Layer 1" xmlns="http://www.w3.org/2000/svg" viewBox="0 0 591.16 572.89"><defs><style>.cls-1{fill:#fff;fill-rule:evenodd;}</style></defs><polygon class="cls-1" points="499.75 476.99 476.24 477.15 476.24 513.31 441.14 513.31 441.14 477.15 417.63 477.15 417.63 570.25 441.14 570.41 441.14 531.24 476.24 531.08 476.24 570.25 499.4 570.41 499.75 476.99"/><path class="cls-1" d="M570.11,797.33v20.94c-4.91,1.59-8.42,5.23-18.6,5.39-8.77.16-14-1.74-14.39-10.31,0-8.56.7-14,8.78-15.38,6.66-1.11,17.2-.64,24.21-.64Zm-41.06-35.05c8.42-.95,21.06-1.75,29.83-.63,4.92.47,8.42,2.06,9.83,6,1,3.33,1,11.42.7,15.07-26,1.43-57.2-5.39-54.75,34.26,1.06,14.12,8.08,21.41,21.06,23.47,6.32,1,14.39.16,20.35-1.26a60.12,60.12,0,0,0,8.08-3c2.1-1.11,5.61-3.17,7-3.65v5.71l22.11.16c.35-13.48,0-27.91,0-41.4V776.56c0-12.06-2.46-14.91-2.46-18.56-2.81-2.06-2.11-12.06-29.83-14.59a107.49,107.49,0,0,0-39.66,4.75L521,762.92Z" transform="translate(-2.28 -268)"/><path class="cls-1" d="M211.09,818.27c-2.8,1.11-5.26,2.54-8.42,3.65a33.17,33.17,0,0,1-10.53,1.74c-8.42.16-13.69-1.9-14-10.31,0-8.88.7-14.11,9.48-15.54,6-.95,16.84-.48,23.51-.48v20.94ZM195.3,839.52v.32l.7-.32v-.16c3.86-1.42,6.67-1.74,12.29-4.75a24.62,24.62,0,0,1,3.85-2.07l.35,5.87h21.76c.35-14.11,0-28.87,0-43,0-32.67,3.16-50.12-33.69-52a111.49,111.49,0,0,0-38.25,4.75v14.76c12.64-.32,18.25-2.23,34-1.59,5.62.16,10.88,1.27,12.64,5.07,1.75,3.34,2.1,12.06,1.75,16.34-23.86.79-50.54-2.7-54.75,21.89-1.75,12.21.7,24.74,7.72,30.45C172.14,841.74,183,841.59,195.3,839.52Z" transform="translate(-2.28 -268)"/><path class="cls-1" d="M275.67,796.38c.7.32,9.82,13,10.17,14.27,1.41,1.27,8.78,12.38,9.83,14,1.75,2.54,3.16,4.45,4.91,7,1.06,1.27,3.86,6.51,5.27,6.82h27.37c-.35-1.74-3.16-5.07-4.21-6.5-1.05-1.75-3.86-4.6-4.56-6.5l-24.92-34.1c.7-1.75,12.63-16.82,14.74-19.67.7-.79,13.69-18.56,14.74-19.2,1.05-2.69,3.86-4.59,4.91-7.13l-26.67-.16c-3.86,4-29.83,41.24-31.93,42.82V745.31l-23.52-.16-.35,93.1,23.87.16Z" transform="translate(-2.28 -268)"/><path class="cls-1" d="M25.09,762c3.86-.79,16.14-.31,20,.8,6,1.74,8.08,5.23,8.08,12.68,0,7.14-2.46,10.79-8.43,12.38-3.86.95-15.79,1.58-19.65.79V762ZM2.28,838.25H25.09V806.53c6-.63,13,.48,19.3-.47,4.56.31,13.34-2.23,16.84-4a27.59,27.59,0,0,0,11.24-10.15c4.91-9,4.91-26-.7-34.42-6-8.72-15.09-11.9-29.13-13-7-.63-34.4-.79-40.36,1Z" transform="translate(-2.28 -268)"/><path class="cls-1" d="M344.1,787l1.06,1c6.66,5.71,9.12,6.35,17.89,10.31,6,2.54,16.85,6.19,19.65,10.47,2.46,3.65,1.06,9.68-1.4,11.74-4.91,4.44-20.35,3.17-27,2.7-4.21-.16-10.18-1-14-1v15.22c10.88,2.38,30.53,4.13,41.76,2.38,6.67-1.11,11.59-3,16.15-6.5,3.16-2.07,8.07-7.78,8.42-13.64,1.41-5.08,1.05-12.37-.35-17.13-4.56-13.8-20-18.08-32.64-23.32-3.86-1.74-9.83-4-11.58-7-1.4-1.9-1.4-5.55-.35-7.77,4.21-8.88,34.39-2.38,41.06-3.33V746.42c-5.26-2.06-19.3-3-26-3.17-9.13-.16-18.25.63-25.62,3.8-12.28,5.39-15.44,18.4-12.28,30.14C340.59,783.69,343.05,784.64,344.1,787Z" transform="translate(-2.28 -268)"/><polygon class="cls-1" points="84.58 570.25 144.59 570.41 144.59 552.81 108.44 552.81 108.44 477.31 84.93 477.15 84.58 570.25"/><path class="cls-1" d="M278.36,606.36c-1.5,3.17-9.53,11.55-11.53,13.82a164.07,164.07,0,0,1-36.11,26.06c-2.5,1.59-5.51,2.72-8.52,4.54.5,1.58,13,28.1,14.54,29.68,6.52-1.58,27.08-15.18,33.09-19.48a186.05,186.05,0,0,0,14.55-11.79c4-3.17,11.53-11.56,13.54-13.14l13.54,13.37c3,2.49,14,11.1,15,12.69,2,.23,8.52,5.21,11,6.57,1.51,1.13,9.53,5.67,10.53,6.57,3.51,1.14,7.52,4.54,11,5.21,1.5-2.26,14-27.87,14.54-29.68-2.51-1.14-4.52-1.82-5.52-3.4-4.51,0-24.07-14.28-27.58-17-15-11.78-14.54-14.5-22.56-22.21l8-16.54A110.31,110.31,0,0,0,333,574l1.5,1.58c0,.23.5.91.5,1.37,15.05,26.74,40.62,48.27,69.71,58.92,3,.91,13,3.17,14.54,4.53l4,.68c16.55,1.36,19.56,3.18,38.61,1.36.5-2-2.51-31.5-3.51-33.09-5.51,0-10.53.68-16.55.23-3.51-.23-12-.68-14.54-2.49a11.63,11.63,0,0,1-6-1.36c-17.06-2.95-38.62-19.72-49.15-33.54a121,121,0,0,1-15-25.61c-3.51-8.16-8.53-22.44-9-32h-36.6v-1.81c-1.51,2.26-2,40.11-20.56,75.24C289.89,589.81,280.87,605.22,278.36,606.36Z" transform="translate(-2.28 -268)"/><path class="cls-1" d="M281.87,513.21l-1,1.14-213.62-.23V481.26c-1,1.13-.5,1.59-.5,3.62v29.69h181c-.5,11.11-8.52,31-12.53,39.44-14.55,29-41.62,50.53-74.22,54.84-13,1.81-16.55,0-24.07.68l-3.51,32.86c19.56,3.17,44.63-1.58,61.18-7.93,18-7,30.59-16.55,42.12-27.2a145,145,0,0,0,29.58-40.34C274.35,549.7,278.36,534.29,281.87,513.21Z" transform="translate(-2.28 -268)"/><path class="cls-1" d="M223.2,294.51V295l-1,2.72c2,1.58,4,2.26,6.52,3.4,2,1.13,3.51,2,5.51,3.17,16.55,9.29,28.58,19.72,40.62,33.31,2,2,3.51,2.72,2,5.44-5.52,10.2-10.54,19.95-14.05,31.73-2-1.81-3.51-5-5-7.7A156.87,156.87,0,0,0,241.75,346c-26.07-27-66.69-45.55-108.31-39.66v4.53c.5.68,0-.45.5,1.13l1.51,12.47c.5,5,1,9.75,1.5,14.73,10,.68,12.54-1.59,29.08,1.59a98.11,98.11,0,0,1,24.08,7.93c15,7.48,26.07,18.13,34.6,29.46,21.06,27.65,26.57,60.06,25.57,102.89H226.71c-.5-23.11-2-38.07-10-57.56-6.52-16.55-17.05-30.37-28.08-39.44C161,360.69,125.42,354.57,80.79,362.5c-.5,1.59,5,30.15,6,32.41,6,0,14.54-2,21.56-2.49,22.06-.68,42.12,3.4,58.17,16.54,17.05,13.6,28.08,40.8,26.57,72.07H171.55c-6-37.85-30.59-59.15-64.68-63.23-8.53-1.13-33.1-.91-39.12,2.27l3.51,20.17,2.51,12c7.52.22,24.07-5.67,42.12,1.81,10,4.31,19.56,14.28,21.56,27l-70.2.23v32.86l213.62.23,1-1.14c2.51-27.42,1-48.27,2.51-74.11,1.5-22.66,6-44,13.54-63.22A132.94,132.94,0,0,1,328,329.64c13-12.92,23.07-19.49,39.12-28.33,2-1.36,4.51-2,6.52-3.62-1-3.18-5.52-10.88-7-14.51-1.51-2.72-6.52-12.91-6.52-14.73-4.52-1.13-30.09,16.09-34.1,19-14.54,10.65-24.57,22.44-28.08,25.16l-6.52-6.58c-2.51-2.26-4.51-4.76-7-6.57-5-4.08-9-7.93-14.55-12-6.51-4.76-26.07-17.22-33.09-19.49C234.23,272.53,225.71,292.25,223.2,294.51Z" transform="translate(-2.28 -268)"/><path class="cls-1" d="M416.26,309.25c-7,3.17-13.54,3.17-27.58,10.65-43.63,23.57-69.2,67.31-75.22,117.84-2,18.36-1,37.63-1.5,56.21,0,5.67-1,13.6-.5,18.81v1.81H528.59l.5-33.31L458.38,481c5-26.74,30.09-32.64,53.15-30.14,3,.45,8,1.58,10.54,1.36l3.51-17.68a8,8,0,0,0,.5-3.4l1-2.49s0-.23.5-.23c-.5-3.17,1-5.66.5-8.83-27.08-4.08-50.14-4.08-71.2,8.83-16.05,9.75-26.08,25.61-30.59,43.52-1,2.26-1.5,7-2.51,9.06l-21.06.23a100,100,0,0,1,6.52-43.06c13-34,42.62-47.59,78.23-45.78,3.51.23,20.55,2.72,22.06,2.49.5-2.49,1-5,1.51-7.25a9.32,9.32,0,0,1,.49-3.63c0-1.58,0-2.26,1-3.4-.5-4.75,3.51-14.27,2.51-18.13-33.1-5.89-65.19-4.53-91.77,10.43-21.56,12-35.1,29.23-44.13,51-1,2.27-3,8.61-4,9.75-1.5,7.47-3.51,13.82-4.51,22.2-1.51,8.62-1.51,16.32-1.51,25.16H345.55c-.5-30.82,1-55.07,12-80.45,11-24,23.57-36.94,44.13-49.86l1.5-.23c3-3.62,20.56-8.61,24.57-9.52,16-3.62,26.08-.9,31.09-1.81l3.51-32.86C445.85,303.58,430.8,307,416.26,309.25Z" transform="translate(-2.28 -268)"/></svg>