<svg id="Layer_1" data-name="Layer 1" xmlns="http://www.w3.org/2000/svg" viewBox="0 0 389.23 331.86"><defs><style>.cls-1{fill:none;stroke:#231f20;stroke-miterlimit:10;stroke-width:0.5px;fill-rule:evenodd;}</style></defs><path class="cls-1" d="M319.51,794.17c-7.54,1.69-11.92,7.34-10.87,15.34a13.39,13.39,0,0,0,26.4-4.44,12.67,12.67,0,0,0-4.93-8.28,13.19,13.19,0,0,0-10.6-2.62Zm13.63,25.28c.85.86,5.49,5.23,6.89,5.22s2.06-.93,1.62-2.42c-.17-.57-9.35-10.23-8.51-2.8Zm-22.39-22.67c-.17-2.21-1.57-2.84-2.95-3.94s-2.11-2.46-4-2.94a1.8,1.8,0,0,0-1.68,2.68,17.13,17.13,0,0,0,2.59,2.47c3.28,2.91,3.94,4.06,6.08,1.73Zm23.14-.74c1.06-1.27,2.65-3.16,3.74-4.39.6-.67,1.57-1.41,1.56-2.58,0-1.66-1.1-1.72-2.77-1.69-2,2.5-9.28,8.93-2.53,8.66Zm-29.3,28.49c-.07,2.25-.21,1.52.9,2.79H307c2-2.25,6.55-6.27,5.12-8.17-2.15-2.84-5.36,3.62-7.57,5.38Zm-8.45-18.1c-.07,3.48.92,2.75,7.93,2.75,1.44,0,2.34-.22,2.44-1.7.18-2.67-3.7-1.93-7.44-1.94-2,0-1.86,0-2.93.89ZM320,826.28c0,3.93-.65,6.81,1.87,6.73s1.8-3.77,1.7-8c-.06-2.33-.5-2.41-2.78-2.31-1,1.51-.79,1.45-.79,3.57Zm.4-44.08c-.71,1.68-.4,4-.39,5.94,0,2.87-.46,3.89,2.68,3.85l.8-1c.1-2.17.08-4.42.09-6.66,0-1.2.13-2-.75-2.56a2.07,2.07,0,0,0-2.43.38Zm16.72,24.24,0,1.73c1.42,1.32,3.74.83,6.93.83s2.76,0,3.58-1.77c-.9-2.49-2.41-1.7-7.65-1.71C337.82,805.51,338.46,805.34,337.14,806.44Z" transform="translate(-202.43 -503.42)"/><path class="cls-1" d="M230.92,503.77c-1,.33-1.71,2.63-2.06,3.43L220.49,526a73,73,0,0,0-3.24,7.57l13.72,0c-.82,2.62-5.76,18.71-5.8,20.27,1.37-.48,13.22-19.11,14.15-20.53l2.39-3.59c.64-1,1.83-2.49,1.94-3.57l-14.94-.28Z" transform="translate(-202.43 -503.42)"/><path class="cls-1" d="M542.67,653.92c2,.1,3.18-.83,5.68-2.06l14.5-7.08c.32-4.82-4.07-4.39-7.65-2.06l-13.78,8.74c.3,1.44-.13.34.65,1.5.29.43.39.59.6,1Zm19.8,16.44-.09,3.93h7.44l-.39-8.92-.12-.31-.42-14.81c-.72-.87-.34-4-.35-5.36-1.09.14-1.8.64-2.49.57-1-.11-1-.45-2.41-.46l-1,25.06-.14.31Zm8.16-29.27c-1.93,2.15-.86,4.24.74,5.41,1.41,1,18,4.8,19.79,5l.24-3.2c-2.42-1.09-19.2-7.5-20.77-7.21Zm-6.39-26.26c-.28,3.74-.67,20.39,0,22.22l3.19.32c2.56-3.93,2.27-2.6,1.25-10.71-.25-2-.49-4.06-.68-6-.21-2.16-.61-4.3-.64-6.36l-3.09.54Zm-.38,29.37a5.88,5.88,0,0,0,2.94.44c1.44-.2,1.56-.79,2.45-1.39.16-1.51.7-2.64-.28-4-2.07-2.94-8.77-1.17-5.21,4.81Z" transform="translate(-202.43 -503.42)"/><path class="cls-1" d="M450.17,608.35c.12,1.83-4,23.61-4.68,27.25-.51,2.82-1.32,6-1.54,8.86l-40.18-1.26c-1.49-.09-7.06-.55-8.29.35.24,1.5-.6.86,1,1.08l12.1.06,0,4.49.78.66c0-.05.1.09.16.13,4.37-.33,11.36,1.72,15.6-.48l.12-4,19.84.36,6.51-35.51c.05-.8.2-1.34.27-1.94l-.33-1.3c-2.37.24-.16-.13-1.44,1.25Zm-24.6,34.76,13.19.12a11.35,11.35,0,0,0,4.35-.14L445.5,631l-17.12.62c-.46,3.07-2.87,8.95-2.81,11.53Zm20.22-13A68.64,68.64,0,0,1,447.61,620l.1-1.93-15.91,1.73-3.12,11.34c1.56,0,15.95-.42,17.11-1ZM408.15,642.7a11.89,11.89,0,0,1,4.37,0l12.57.14L428,631.63l-16.69.86L407.78,642c.21.31.07.49.37.72ZM411.78,632l16.49-.74L431.2,620c-4.64.11-9.51,1.15-14,1.51-2.1.17-1.8-.26-2.42,1.5-.33.94-.77,2-1.1,3-.51,1.38-1.84,4.55-1.89,6Zm23.4-22.36c-1.38,1.38-.58-.81-2,4.36-.52,1.93-1,3.54-1.4,5.38l16.25-1.64,1.8-10.41a65.49,65.49,0,0,0-7.31,1.2c-1.78.3-5.41,1.29-7.37,1.11Zm-15.33,2.79-1.28.64a47.16,47.16,0,0,0-3,8.17l15.79-1.68,2.49-9.28a52.65,52.65,0,0,0-7.12,1.15c-1.8.37-5.33,1.18-6.86,1ZM399.5,632.83c-.5,2.14-3.56,7.29-3.59,9.37l2.86.14,8.58.1c.68-3.08,2.92-6.86,3.42-10l-11.27.37Zm4.9-9.92c-1.16.51-2.34,4.12-3.13,6-.2.48-.29.74-.46,1.1l-.43.72s-.08.09-.12.13l-.36,1.56,11.19-.4c1-2.68,3-7.37,3.6-10.1l-10.29,1Zm.16-1.87-.37,1.48,10.91-1.14,2.93-8.24-1.75.08L407.21,615C406.27,616.91,405.51,619.47,404.56,621Z" transform="translate(-202.43 -503.42)"/><path class="cls-1" d="M217.44,599.69c.78,6.18,6.51,3.63,9.7,1.9-1.71-.31-3.41-.29-5-.57a32.4,32.4,0,0,1-4.74-1.33Zm13.1,1.9c3.85,1.73,8.71,3.79,9.75-2.52-5.28,2.11-.74,1.54-9.75,2.52ZM218,597.39c1.31.68,4.67,2,6,1.56a13.28,13.28,0,0,1-2.57-2.28,25.14,25.14,0,0,1-2.31-2.31,5.64,5.64,0,0,0-1.13,3Zm14.93,2.07c1.2-.34,2.41-.31,3.75-.81a18.55,18.55,0,0,0,3.1-1.66l-.95-2.78c-1,.28.1-.48-1.07.54l-4.83,4.71Zm-12.74-7.07c2.64,2.9,3.89,3.72,6.18,5.9,4.09,3.88,6.72-3,11.42-6-2-2.42-4.2-5.33-6.78-7l-4.37-.1c-1.49,1.69-5.79,5.21-6.45,7.2Zm-5-4.23c-2,3.51-1.48,5.12,1.09,7.88a31.58,31.58,0,0,0,1.46-3.34,16.81,16.81,0,0,1-2.55-4.54Zm26.61,6.71c-.42-.87-.85-1.06-.66-2.5s1-1.12.44-2l-1.45,2.07,1.22,3,.45-.56Zm-2.7-4.22,1.29-1.94a11,11,0,0,0-5.54-2.83,29.22,29.22,0,0,1,4.25,4.77Zm-22.39-3.89c.71,1.68,1.42,2.66,2.07,4,1.37-1.45,2.86-4,5.19-5.74-3.05-.08-5.5.25-7.26,1.75Zm13.74-4.69c2.73,2.66,1.88-.06,6.8,2.12,2.56,1.14,2.72,1.74,4,2.45l.63-3.3c.7-4.61-6.41-6.33-11.47-1.27Zm-14-1.06-.42,3.45c1.73-.52,2.35-1.14,4.28-1.33,2.16-.21,3.68,0,5.64-.08a6.28,6.28,0,0,1,1.38-1.11c-1.78-1.54-3.6-3.28-6.87-3.49-.56,1.78-.73,3.22-4,2.56Zm-1.19-3.7c-.27,3.82-.81,4.19-.87,6,0,.91.34,2.21,0,2.88a24.32,24.32,0,0,0-1.37,2.08,8.35,8.35,0,0,0-.29,6c.75,2.23,1.61,2.8,3,4.35-.93,7.48,4.8,8,9.35,6.39,1.76-.6,2.56-1.38,4-1.93a14.39,14.39,0,0,0,7.19,2.22c5.25,0,5.5-2.9,5.57-7.62a7.45,7.45,0,0,0,1.83-2.28c1.31-.2,1.67-.24,2.25-1.25,1.66-2.9-2-4.07-2-4.07A12.42,12.42,0,0,1,242.7,588c1.48-4.33,1.12-9.21-2.78-10.82-4.65-1.92-8.39,1.55-11.08,3.3-3.41-2.18-2.94-3.64-8.46-3.87-1.91-.08-.52-.6-3.61-.62-.48.5-1,.87-1.44,1.31Zm27.84,34.59a5.71,5.71,0,0,1-2.55,2.16c.16-.1-.12.28.26-.27.63-.9.21-.65,1-1.19a15,15,0,0,1,2-2.66c.67-.9,1.48-1.93,1-3.27-1.77-.39-3.24,1.35-4.25,2.24a37.12,37.12,0,0,0-3.43,3.44c-1,1.27-2.11,2.53-3,3.86l-2.61,4.11c-.32,2.13-.86,1.46-.75,5.52.06,2.54.84,3.48,1,5.44h5.88c.07-1.42.11-1.87.68-2.56a3.94,3.94,0,0,1,2.69-4c4.33-1.84,9.31-5.05,12-8.64,5.62-7.35,2.12-18.91-3-18.15-1.07,6.58.36,7.43-5.51,13.07-1.24,1.18-.93.78-1.42.93Zm-22.65,17.84c.75.79,0,0,.52,1l5.74.49c.87-4.64,2.2-5.58,0-11.38-.92-1.25-1.59-2.72-2.6-4.1-1.57-2.12-7.89-10-10.36-9.08-.72,1.8,2.58,5.34,4.19,7.37-1.29-.54-5.71-4.66-6.72-6-2.5-3.4-2.2-5.6-2.76-10.3-2.6.2-3.36,1-4.23,3-2.57,5.84-2.18,11.61,1.78,16,8.1,8.93,14.7,6.34,14.43,13ZM232.42,593c1.38-5.68-6.79-7.11-8.09-2.29C222.79,596.42,231.09,598.48,232.42,593Z" transform="translate(-202.43 -503.42)"/><path class="cls-1" d="M413.89,719.2c1.16.46,1.48,1.15,3.06,1.31,4.23.44,4.9-4.31,5.51-7.62.42-2.29.71-5.15,1.08-7.61.42-2.82,1-4.45,1.47-6.86-3.62.27-11.65,4.56-13.87,6.69-5.67,5.44-1.73,11.17,1.67,13.06a12.13,12.13,0,0,1-.16,1.47l-8.81-8.72c-1,.43-.75.4-1.76,1.4l-20.24,20.07c-.53.49-.52.23-.66,1H388l.11,19.59c2.38.19,8-.4,9.88.23l.11-11.66c1.52-.69,9.17-.51,10.72-.13l.07,11.57,10,.07.06-19.67h6.62c-.87-1.84-9.93-10.4-12-12.69Z" transform="translate(-202.43 -503.42)"/><path class="cls-1" d="M546.59,726.1c0,16.93,21.47,26.71,34.25,13.38a19.83,19.83,0,0,0-6.18-31.82l-2.52-.9-.2-.07a13.6,13.6,0,0,0-5.12-.81,19.83,19.83,0,0,0-20.23,20.22ZM564,702.85a2.54,2.54,0,0,0-2.4-.76c-1.31.22-1.33.92-2,1.66-3.41-1.24-3,.33-4.28,1.81-3.34-.48-2.53.55-3.68,2.57-2.67.08-3,.46-3.12,3.14-1.63.72-1.06.09-2.43,1.31l0,2.51c-2.66,1.13-2,1.39-1.8,4.13l-1.33,1.12c-.12,2.26-.1,1.61.64,3.46-2.11,1.1-1.33,3.15-.06,4.17-.68,1.6-.69,1-.61,3.29l1.51,1.3c-1.19,2.23,0,3.19,1.65,3.91,0,3.62-.34,2.58,2.49,3.82.13,2.71.47,3.05,3.11,3.15.92,1.64.28,3.09,3.7,2.56,1.25,1.51.91,3,4.26,1.81,2.42,2.75,1.88,1.75,4.69.92,1.94,2.31,3.16,1.16,4.38,0,1.59.69.95.76,3.3.62l1.33-1.59,2.69.43c.68-.89,1-1.39,1.56-2.26,3.24.45,2.37-.46,3.67-2.3,1.46-1.23,2.22,1.45,3.15-3.43,2-.62,1.1-.17,2.47-1.5v-2.28c2.15-1.09,2.35-1.37,1.65-4.07,2.34-2,1.7-1.94.92-4.38,1.49-1.47,1.43-2.91,0-4.37.54-1.86,1.62-2.66-1-4.36.85-2.65.46-3.06-1.55-4.09,0-2.67.22-2.9-2.53-3.8-1.09-5-1.66-2.12-3.16-3.41-1.19-1.8-.73-2.93-3.66-2.31a21,21,0,0,0-1.57-2.17c-5.4.36-1.8-.71-4.69-1.31-1.37-.29-1.75.3-2.63.67-2.56-2.42-2.78-.91-4.69,0Zm2.24,25.75c-.08,1.44-.23,2.47-.27,3.93l.11,2c.46-.78.3-2.41.35-3.54l1.21-.7a3,3,0,0,1-1.23.41L567,724l-.7-3.11c-.3.71,0,.21.06,1.7,0,1.1-.08,2.25-.06,3.39-1.12-.15.06,0-.08,2.58ZM564.81,738a23.54,23.54,0,0,1,0,5.44h1.87l0-5.51c15.35-2.49,9.1-17.3,3.58-25.51-.94-1.39-2.18-2.94-2.91-4.23-1.44.48-1.88,1.47-3.07,3.18-4.09,5.83-12.65,19.68-3.88,25C562,737.29,563,737.26,564.81,738Z" transform="translate(-202.43 -503.42)"/><path class="cls-1" d="M460.2,718.59c.57,1.48-.4.64,1.34,1.79a8.92,8.92,0,0,1,1.51,1.17c-.78,1.13-1.57,2.16-2.44,3.41a22.86,22.86,0,0,1-2.53,3.32c.41,2.33,1.89,4.52,2.92,6.37.92,1.66,2.08,4.56,3.59,5.47a4.89,4.89,0,0,1,1.54-2c-1.29,2.05-1.12,2.89-.21,5a15.94,15.94,0,0,0,2.16,3.82L481,747l.14-11.82-13.1,0-.76,1.19a59.3,59.3,0,0,1,5.31-8.24,14.53,14.53,0,0,0,2.89,1.8s.19.06.22,0,.15,0,.22,0c.32-1.29-1.87-12.53-2-14.06l-13.65,2.76Zm22.93,23.6c.62,1,5.83,5.65,7.39,7,.53.47.81.72,1.3,1.2,1.15,1.12.63.82,1.82,1v-3.8l9.06,0c1.08-2.44,5.17-8.88,5.65-11.79l-14.65.37,0-3.83c-1.29-.13-3.62,2.87-5.45,4.54-1,.89-1.65,1.49-2.59,2.41l-1.88,1.83c-.74.88-.32.39-.61,1Zm3.43-33a5.48,5.48,0,0,1,1.27,2c.44.81.8,1.45,1.17,2.19-.89.75-2.71,1-3.27,2.21,1,.78,7.83,2.94,10,3.71l1.59.59c1.17.43,1,.5,2,.25.51-1.07,3.73-12.12,3.63-13.15-1.45,0-2.32.77-3.52,1.29-1.05-1.13-3.07-6.16-3.95-7.83l-7.86-.37c-.69.73-4,.3-5.23.29.5,2.94,3.34,5.94,4.17,8.82ZM494.93,725c1,2.19,5.21,7.76,7,10.63,2.81.22,5.87.51,7.52-1.89a20.93,20.93,0,0,0,2.3-4.67c0-.75-4.16-6.48-5.2-8-.88-1.32-1.24-2.13-2.11-2.66a52.13,52.13,0,0,0-4.74,3.13l-4.1,2.76c-.65.52-.29.21-.66.74Zm-10.11-17.94,0-1.29a18.91,18.91,0,0,1-1.58-2.7,20.35,20.35,0,0,0-1.92-2.3c-1.72.07-4.62-.28-6.82-.27-1.2,2.37-5.76,9.72-6.19,11.51,2.53,1.16,8.09,4.94,10.15,5.43C480.5,715.73,483.26,708.1,484.82,707.05Z" transform="translate(-202.43 -503.42)"/><path class="cls-1" d="M329.34,707.82l-2.92,1.42a2.64,2.64,0,0,1-1.4.74,9,9,0,0,0-2.42-4.12L320.3,710a2.08,2.08,0,0,1-.48.64c-1.64-.89-3-2-5.31-2.23-.3,2,.3,3,.44,4.73a10.78,10.78,0,0,0-5.59,1c.13.11,2,2.46,2.73,3.27l-3.36,3.44a8.9,8.9,0,0,0,1.93,1c1.12.4,1.4.15,2.4.9a15.7,15.7,0,0,0-1.55,4.55c2.48.06,3.06-.57,5-.77a10.71,10.71,0,0,0,1.16,4.66,6.88,6.88,0,0,0,2.6-2.09c.81-.87.12-.4,1.15-.81a24.19,24.19,0,0,0,3.44,3.49,7.92,7.92,0,0,0,1.47-4.63c2.23.34,2.52,1.11,5.63,1.14-.23-2.67-1.51-3.69-2-5.76a9.85,9.85,0,0,0,5.08-2.59c-1.82-1.87-2.19-1.34-3.42-2.5.71-1.37,2-2.71,2.41-4.49l-4.61-.16c.42-3.28.37-1.72,0-4.88Zm3.21,27.35c3.53-3,4.93-4.07,6.91-8.54a19.47,19.47,0,0,0,.47-13.39,18.5,18.5,0,0,0-18.24-12.92c-17.89.1-23.72,21.13-14.29,31.32,4.65,5,3.8.87,3.93,8.67l21.16,0,.06-5.12ZM311.62,748c2,1.61,6.95,3.22,10.38,3.21a21.55,21.55,0,0,0,10.22-3.12l-.38-2-20,.09-.17,1.78ZM322,744.55c3,0,8.32.56,10.45-.47.06-1.24.15-1.06-.35-1.87-1.61-.73-13.39-.28-17-.28-2.67,0-4-.7-3.84,2.08,2,1.14,7.82.54,10.71.54Zm-1-29c-1.31.49-1.29.14-2.09,1.48a3.5,3.5,0,0,0,4.18,5.06c4.14-1.39,2.11-8.12-2.09-6.54Zm-3.8,4.28c1,5.31,10.11,5.15,9.39-1.88C326,712.16,315.94,712.9,317.19,719.85Z" transform="translate(-202.43 -503.42)"/><path class="cls-1" d="M563.6,823.25,563,827c.73-.39.87.93,1-2.85,1.75.33,5.06,3.6,6.57-4.52.69-3.7.82-7.64,1.92-11.15-2.9.38-8.39,3.3-10.22,5-4.24,3.89-1.64,8,1.32,9.75ZM550.44,804.8c-.37,2.24-.11,7.82-.09,10.5,0,3.8.52,6,2.07,8.52,7.65,12.39,29.92,9.68,30-8.52,0-3.59,0-7.18,0-10.77-1.53,0-30.33-.38-31.95.27Zm24-21.39c-.62,3.22-.19,10.87-.18,14.58l-15.69,0-.15-14.25a2.82,2.82,0,0,0-3.38,0c-.57,2.39-.18,11.19-.18,14.27h-7.48v4.9l38,0V798L578,798c0-4.6.15-9.3-.16-13.88-.1-1.44-2.87-.65-3.34-.69Zm-8.81,34.85c.5-.88.87-1.82,1.25-2.58.48-1,1.15-1.95,1.54-2.73-.86.09-.77.1-1.19.78l-1.74,3.38C565,818.26,564.84,818,565.66,818.26Z" transform="translate(-202.43 -503.42)"/><path class="cls-1" d="M467.77,823.43c.39,1.12-.5.63.89.85l4.27-.09,0-5c-.91-.07-1.75-.05-2.66-.06-3.12,0-2.17-.12-2.48.53v3.76Zm-8.37-4.27.05,5.06,5.05,0,0-5.05Zm8.54-5.1,5,.07,0-5.18-5,0a11.81,11.81,0,0,0,0,5.09ZM459.51,809l-.1,5,5.09.16,0-5.17Zm25.61-.51a1.57,1.57,0,0,1,.26-.66l3,.47c.72-1.7.81-.63,1.66-2.49h-34.4v21.83l35.31,0c-.23-1.32.32-.42-.68-1.38-2.23-2.16-2.24,0-3.8-.41-1.27-.77-1-.67-1.7-2.19-1.63-3.52-1.59-3.32.34-4.63a5.25,5.25,0,0,0,.57-.47l-.05-3.61c-3.11-.6-2.67-1.95-1.36-5.28l.81-1.15Zm18.09,7.14c.6,1.3,2.33,2.79,2.45,4.23l-3.21,0-.56-1.07-3.08,3.08,3,3.16.51-1.28h3.31a29.41,29.41,0,0,0,1.76-4c.59.26-.16.36-.26-.32,0-.11-.1-.15-.14-.23,1.2-.27,1.29-1.19,1.87-2.08l-2.62-3.61-3,2.05Zm-5.83,8,.2-4-5.08-.09,1.79-2.92,1.23.45-.64-4.57-4.4.88.68,1c-.43,1.32-1.07,1.35-1.72,3l2,3.32c1.09-.3-.23-.56,1-.11-.55,1.2.16,2.13.69,3l4.31,0Zm1.15-16.26a6.33,6.33,0,0,0-3-.58l-2.27,3.85,3.51,2,2.63-4.32,1.36,2.94c-.34.48.34.47-1,.81a27.56,27.56,0,0,0,4.51,1.61l1.26-4.44-1.28.51-1.55-3h-4l-.17.69Zm-13,1.25a13,13,0,0,0-1.36,4.5c1.12.85,1.26.59,2.42,1.25l.11,4.69-2.19,1.1c.13,1.8,1,3,1.58,4.35a4.74,4.74,0,0,0,2.87-.92c.79,1,1.49,1.55,2.34,2.66l.74.14c0,1.37-.63,1.39-.6,3.36l4.18,1.28c1-1.24.58-1.33,1.25-2.51a22,22,0,0,0,5.35-.21l1.12,2.38a9,9,0,0,0,4.49-2l-1-2.84a10.46,10.46,0,0,0,3.15-3.39c1.26.12,1.6.41,3,.53.47-1.46,1.2-2.77,1.15-4.62l-2.45-.91-.31-4.49,2.22-1.13c.24-1.34-.07-1.38-.58-2.4-.86-1.72-.73-2.08-1.79-2l-1.91.84a22.13,22.13,0,0,0-3.9-3.34l.61-2.7a16.33,16.33,0,0,0-4.53-1.37l-.94,2.33-4.58.38c-.2-.47-.32-.8-.56-1.25a3.9,3.9,0,0,0-.37-.62c-.76-1.09-2.86.6-4.63,1.21.2,1.7.58,1.67.94,3a13.64,13.64,0,0,0-3,3.48l-2.87-.79Zm-20-25c.16,9.14-4.32,18.93-4.42,20.36l16.73,0c0-1.23-4.25-10.27-4.53-20.39Z" transform="translate(-202.43 -503.42)"/><path class="cls-1" d="M390,804.35c-.86,2.12-.45,6-.45,8.8s-.29,6.51.19,9l25.35.53c1.08-.46.81-4.38.87-5.47l1.91-.2c.4-1.18.2-3.14.21-4.5,0-2.91.33-2.54-2.14-2.76,0-1.72.17-4-.51-5.22-6.93-.58-18.23-.3-25.43-.19Zm12.72-8.6-2.61.66c.92.58,1.31,1.4,3.16,1.67,0-1.28,0-1.54-.55-2.33Zm2.37,2.55c.87-.49,4.18-2.13,5-2.15a42.57,42.57,0,0,0-5.32-.4,7.53,7.53,0,0,0,.36,2.55Zm-11.62-4.9c-1.19.88-5.74.59-9.6,10-4,9.67-.28,21.74,8.22,28.27,4.25,3.27,9.37,4.18,15.56,2.72,10.73-2.53,16.8-11.17,17-22.44.08-5.46-2.63-11.85-5.47-14.24-3-2.5-10.47-4.24-14.74-4.63,0-3-.22-2.42,1.1-4.23,3.4,6.91,8.63-2.67,10.91-5.47l1.4-1.25a4.41,4.41,0,0,0,.52-1.24c-3.38-.66-7.19-1.9-11-1-6,1.48-1.86,7.1-2.56,8.42a4.22,4.22,0,0,0-.61-1.24l-1.95.16c-.44,1.65.26,4.25.39,5.79l-9.15.39Zm11.65,25.51c1-1,.64-9.9,0-11.22l-4.68-.06c-1,2.24-.52,5.72-.53,8.33,0,1.46-.28,3,1,3.36a11.1,11.1,0,0,0,2.18.14c1.33,0,1.5,0,2-.55Zm2.63-11.28-.74.83c-.09,2.47-.56,9.15.51,10.8l4.56.13c1-1.89.56-10.88.54-10.93l-.79-.82Zm-9.87.07-5,.59c-.09,2.63-.05,5.31-.06,8,0,2.26-.76,3.88,5.09,3,.93-1.62,1.11-10-.06-11.57Zm-6.52,12.8h22.79L414,806.3l-22.67.16Z" transform="translate(-202.43 -503.42)"/><path class="cls-1" d="M230.61,793l-.16,31.73H250l.07-31.76-19.5,0Zm-2.83-3c-1.44,1.87-.79,6.5-.79,9,0,5.56-.59,26.13.33,28.58,2.34.78,15.53.4,20.16.57,2.62.1,4.09.34,6.08-.81.54-2.9.7-34.69,0-36.79-1.53-1.46-5.22-.66-7.44-.82a7.38,7.38,0,0,0-.33-2.77c-.13-.06-.06-.15-.79-.27a7.27,7.27,0,0,0-1-.05c-9.55-.22-9.18-.69-9.17,3-2.36.27-4.91-.26-7.09.4ZM232,815a13,13,0,0,0,0,7.87c4.54.87,4.36.54,9.23.54,3.28,0,5.08.35,7.62-.58l.29-7.15c-2.35-1.81-3.62-1.2-8.22-1.21-2.9,0-6.7-.4-8.92.53Zm3.6-11.89h6.57c1.93,0,5.58.56,6.63-.68.76-.88.47-5.64.36-6.94-.79-1.84-7.78-1.19-10.74-1.21-5,0-6.67-.65-6.77,2.76-.18,5.93-.21,6.06,4,6.06Zm-3.88,9c1.15,1.56,2.67,1.12,4.82,1.13l8.76.05c2,0,2.4.09,3.84-1.05.3-9.2,1.76-7.76-12.91-7.79C232.07,804.38,230.91,803.55,231.71,812.05Z" transform="translate(-202.43 -503.42)"/><path class="cls-1" d="M506.19,564.28h20.65l0-11.5H506.19v11.51ZM504.39,543c2.33,0,20.74-3.88,22.74-4.64,0-1.41.23-2.23-.42-3.52-1.8-.43-11,1.73-13.33,2.19s-4.12.86-6.52,1.32c-3.36.63-4,1.05-2.47,4.65Zm0,5.66c2.19,0,21.29-4,22.73-4.69l-.19-3.66c-2.88-.11-10.52,1.78-13.64,2.41-9.32,1.88-10.83,1-8.9,5.94Zm0-11.31c1.83,0,20.82-3.94,22.69-4.65L527,529c-2.94-.06-15.76,2.77-20.1,3.66-3.22.66-4,.56-2.43,4.66Zm3.1,31.32,17.79,0c.61-1.45,1.4-2.78,1.34-3.76l-20.3-.07c0,1.63.9,2.11,1.17,3.8Zm-3-37c1.72.14,13.63-2.48,15.13-3,.72-2.89.15-4-2.48-3.46-1.9.36-3.78.69-5.8,1.06-6.53,1.19-9.13.6-6.85,5.43Zm3.87,20.73,4.71,0,0-1.62c-.13-.14-1.07-2.27-1.25-2.65l-6,.87c.47,2.59,1.51,1.62,2.52,3.38ZM509.93,572c-.89.95-1.1-.14-.85,1.55.31,2.1.3-.31.87,1.27-.51,1.56-.81-.52-.88,2.18.51.36.11.45,1.59.42l.89,2.21c7.84-.07,10.07,1.15,10.65-2.13l1.79-.13c0-3.07-.34-.91-.91-2.55.67-1.61.69.86.94-1.27s-.25-.28-.93-1.55c.56-1.6,1,.54.86-2.56l-14.85,0c0,1.84-.08,1.28.69,2.39a2.11,2.11,0,0,1,.14.22Zm8.84-23.13-.49,3.55h4.88a2.45,2.45,0,0,1,1.23-2.73,5.66,5.66,0,0,1,2.2-.88l.47-.16c1.67-.65.14-4-.13-3.43l-1,0A10.27,10.27,0,0,0,518.77,548.83Z" transform="translate(-202.43 -503.42)"/><path class="cls-1" d="M426.76,547.11a19.7,19.7,0,0,0,0-2.19c0-3.13.28-2.94-1.55-2.94h-8.88c-2.13,0-1.77-.17-1.77,2.7,0,3.17-.27,2.92,1.57,2.92H425c.92,0,1.6.17,1.73-.49Zm-22.84-6.68a2.35,2.35,0,1,0,1.92-2.7,2.35,2.35,0,0,0-1.92,2.7Zm33.52-.1a2.34,2.34,0,1,0-2.65,2,2.3,2.3,0,0,0,2.65-2Zm-28.35-8.93h23.15c0-.22-3-6.75-3.11-6.83-.59-.67-8.36-.75-9.9-.75a38.55,38.55,0,0,0-6.17.43c-1,.2-.83.25-1.2,1-.19.41-2.7,5.79-2.77,6.09Zm-15.8-15.27V519h-1.17V522a3.94,3.94,0,0,0,.86,2.3,3.9,3.9,0,0,0,1.92,1.29V535.8a2.37,2.37,0,0,1-.42,1.74c-1.21,1.59-3.42.36-5.43,1.06a4.2,4.2,0,0,0-.46,7.77c1.2.57,2.37.43,3.9.43l6.49,0a19.36,19.36,0,0,1,2.17,0v4.41c0,.8-.22,2.1,1.19,2.1h4.09c1.82,0,1-2,1.25-3.05h26c.06,1.33-.41,3.05,1.2,3.05H439a1.08,1.08,0,0,0,1.2-1.22V539c0-3-1.75-2.72-2.61-4.56a4.56,4.56,0,0,1-.42-1.91,9.25,9.25,0,0,0,2.34-1c2.23-1.44-.31-2.58-1.73-3-1-.3-1.68-.23-2.14.68l-.11.16-.5-1c-.77-1.53-2.74-5.76-3.9-6.34a23.84,23.84,0,0,0-5-.88c-3.77-.36-11.09-.51-14.69.38a3.48,3.48,0,0,0-1.79.93,30.59,30.59,0,0,0-3.43,6c-.07.16-.15.33-.22.47a1.14,1.14,0,0,1-.26.44l-.14-.27a1.29,1.29,0,0,0-.64-.62c-1-.46-4.72,1-4,2.26.5.87,2.24,1.53,3.21,1.77-.22,4-3.07,2.72-3.07,6.65v5.54c-.38,0-9.47,0-10.13,0-1,0-1.43,0-2-.5a2.19,2.19,0,0,1,.18-3.45c1.51-1,4.18.48,6.31-1.34a4.28,4.28,0,0,0,1.54-3.61v-7.61c0-.8-.05-1.77,0-2.55a4.49,4.49,0,0,0,2-1.34,3.86,3.86,0,0,0,.87-2.5V519h-1.11a26.13,26.13,0,0,0,0-3.08.79.79,0,0,0-1.57.23V519h-2.31a28.54,28.54,0,0,0,0-3.08A.79.79,0,0,0,393.29,516.13Z" transform="translate(-202.43 -503.42)"/></svg>